<svg version="1.2" xmlns="http://www.w3.org/2000/svg" viewBox="0 0 193 85" width="193" height="85">
	<title>logo-seven-svg</title>
	<style>
		.s0 { fill: #ffffff } 
		.s1 { fill: #000000 } 
	</style>
	<g id="Layer">
		<path id="Layer" fill-rule="evenodd" class="s0" d="m0-54h192.8v192.8h-192.8z"/>
		<path id="Layer" fill-rule="evenodd" class="s1" d="m170.1 26.9h0.7 0.8l1.2 0.2 0.7 0.2 0.6 0.3 0.5 0.3 0.4 0.3 0.6 0.7 0.5 0.9 0.4 1 0.3 1.2v25.7h-8.7v-21.4l-0.3-0.7-0.7-0.6-0.7-0.3-0.8-0.1-0.7 0.1-0.8 0.4-0.4 0.6-0.4 0.9v21.1h-8.8v-30h8.8v2.9l1.1-1 0.7-0.6 0.5-0.5 0.6-0.3 0.7-0.4 0.9-0.4 1-0.3zm-91 0.7v23.4h6.2v6.7h-15v-30.1zm37.9 0l3.4 19.2 3.7-19.2h6.8l-5.8 30.1h-13l-4.4-30.1zm32.7 0v6.7h-7.2v5.5h7.2v5.7h-7.2v5.5h7.2v6.7h-16v-30.1zm-105.5 12.3v5.7h-10.2v-5.7zm20.4-12.3v6.7h-7.4v5.5h7.4v5.7h-7.4v5.5h7.4v6.7h-16.1v-30.1zm39.9 0v6.7h-7.3v5.5h7.3v5.7h-7.3v5.5h7.3v6.7h-16v-30.1zm-94.6 0.2h18.5l-1.7 1-1.4 1-1.6 1.2-1.3 1.2-2.3 2.6h-10.2zm22.4 7.2c0 0-4.9 2.5-6 6.3-1.1 3.8-1.1 8.6-1 16.4-2.7 0-8.9 0.1-8.9 0.1 0 0-0.6-11 3-19.2 1.7-4.1 7.2-9.6 12.9-11.1zm146.3 19.4c0-2 1.6-3.5 3.5-3.5 1.9 0 3.5 1.5 3.5 3.5 0 2-1.6 3.5-3.5 3.5-1.9 0-3.5-1.5-3.5-3.5zm3.5 2.9c1.6 0 2.8-1.2 2.8-2.9 0-1.6-1.2-2.9-2.8-2.9-1.6 0-2.8 1.3-2.8 2.9 0 1.7 1.2 2.9 2.8 2.9zm-0.7-0.9h-0.6v-4h1.5c0.9 0 1.4 0.4 1.4 1.1 0 0.8-0.4 1.1-1 1.1l1.1 1.8h-0.7l-1-1.7h-0.7zm0.7-2.3c0.5 0 1 0 1-0.6 0-0.5-0.5-0.6-0.9-0.6h-0.8v1.2z"/>
	</g>
</svg>